# xmcd
#
# Track frame offsets: 
#        150
#        13200
#        28217
#        43931
#        61525
#        80449
#        92742
#        106874
#        120367
#        126906
#        137434
#        147787
#        163967
#        182845
#        197925
#        211468
#        221140
#        244272
#        254936
#        267178
#
# Disc length: 3793 seconds
#
# Revision: 1
# Processed by: cddbd v1.5.2PL0 Copyright (c) Steve Scherf et al.
# Submitted via: ExactAudioCopyFreeDBPlugin 1.0
#
DISCID=320ecf14
DTITLE=Nosequién y los Nosecuantos - XX Larga Duración [CD2)
DYEAR=2011
DGENRE=Latin
TTITLE0=Tierra del Sol
TTITLE1=La pacha
TTITLE2=Sin calzoncito
TTITLE3=Operativo calzón
TTITLE4=Yo de tí
TTITLE5=Father and son (Sr. Vasconsuelos)
TTITLE6=Volver
TTITLE7=Manda fruta (Desde lejos)
TTITLE8=Que lindos sus ojitos
TTITLE9=Tanda comercial
TTITLE10=Mamá, mamá, mamá no te robes mi Yamaha
TTITLE11=Bajo la luna
TTITLE12=Yo fui lorna
TTITLE13=Las torres
TTITLE14=5 balas
TTITLE15=Pasamayo maldito
TTITLE16=Ana Icram
TTITLE17=El rap del chicle choncholí (Barcelona en vivo 2008)
TTITLE18=Monstruo de Armendáriz (Barcelona en vivo 2008)
TTITLE19=Kagen von risen (Barcelona en vivo 2008)
EXTD=
EXTT0=
EXTT1=
EXTT2=
EXTT3=
EXTT4=
EXTT5=
EXTT6=
EXTT7=
EXTT8=
EXTT9=
EXTT10=
EXTT11=
EXTT12=
EXTT13=
EXTT14=
EXTT15=
EXTT16=
EXTT17=
EXTT18=
EXTT19=
PLAYORDER=
